<svg width="100" height="32" viewBox="0 0 100 32" fill="none" xmlns="http://www.w3.org/2000/svg">
<g id="Logotype">
<g id="Group 13304">
<g id="Group 13253">
<path id="." d="M39.3192 12.1555C39.3192 11.7275 39.465 11.3677 39.7568 11.0759C40.0486 10.7841 40.4085 10.6382 40.8365 10.6382C41.2644 10.6382 41.6243 10.7841 41.9161 11.0759C42.2274 11.3677 42.383 11.7275 42.383 12.1555C42.383 12.5835 42.2274 12.9531 41.9161 13.2643C41.6243 13.5561 41.2644 13.702 40.8365 13.702C40.3891 13.702 40.0389 13.5464 39.786 13.2351C39.4748 12.9434 39.3192 12.5835 39.3192 12.1555Z" fill="#FF8B49"/>
<path id="Union" fill-rule="evenodd" clip-rule="evenodd" d="M23.2698 22.6399L23.2724 22.6425L23.2751 22.645C24.1527 23.4908 25.2411 23.9148 26.5059 23.9148H28.5266C29.1288 23.9148 29.617 23.4266 29.617 22.8244V21.799C29.617 21.1968 29.1288 20.7086 28.5266 20.7086H26.8707C26.4415 20.7086 26.1484 20.5909 25.9361 20.3927C25.74 20.1697 25.6161 19.8473 25.6161 19.3718V13.8489H28.5182C29.1204 13.8489 29.6086 13.3607 29.6086 12.7585V11.7056C29.6086 11.1034 29.1204 10.6152 28.5182 10.6152H25.6161V8.15415C25.6161 7.55194 25.1279 7.06374 24.5257 7.06373L23.0479 7.06372C22.4457 7.06372 21.9575 7.55192 21.9575 8.15414L21.9575 19.3079C21.9575 20.637 22.3854 21.7632 23.2698 22.6399Z" fill="#262B31"/>
<path id="Union_2" d="M16.8459 6.58407C16.5089 6.92105 16.3405 7.33025 16.3405 7.81166C16.3405 8.31714 16.521 8.73838 16.882 9.07536C17.219 9.43642 17.6403 9.61695 18.1457 9.61695C18.6271 9.61695 19.0363 9.44846 19.3733 9.11147C19.7344 8.75041 19.9149 8.31714 19.9149 7.81166C19.9149 7.33025 19.7344 6.92105 19.3733 6.58407C19.0363 6.22301 18.6271 6.04248 18.1457 6.04248C17.6403 6.04248 17.207 6.22301 16.8459 6.58407Z" fill="#28A0F6"/>
<path id="Union_3" d="M16.3405 22.8243C16.3404 23.4266 16.8286 23.9148 17.4309 23.9148H18.8245C19.4267 23.9148 19.9149 23.4266 19.9149 22.8244L19.9149 11.7286C19.9149 11.1264 19.4267 10.6382 18.8245 10.6382L17.431 10.6382C16.8288 10.6382 16.3406 11.1264 16.3406 11.7286L16.3405 22.8243Z" fill="#262B31"/>
<path id="Union_4" fill-rule="evenodd" clip-rule="evenodd" d="M47.4248 12.6874L47.4264 12.6892L47.4281 12.691C48.0788 13.3614 48.8707 13.7021 49.7902 13.7021C50.5634 13.7021 51.217 13.4906 51.7277 13.0493V13.1472C51.7277 13.4407 51.9676 13.6788 52.2635 13.6788H53.0812C53.3771 13.6788 53.617 13.4407 53.617 13.1472V12.8258V4.5316C53.617 4.23801 53.3771 4 53.0812 4L52.2589 4C51.963 4 51.7231 4.23801 51.7231 4.5316V7.09809L51.7226 7.21918C51.7226 7.21918 51.6588 7.16926 51.5912 7.11632C51.1138 6.74233 50.55 6.55766 49.912 6.55766C48.9521 6.55766 48.1313 6.88834 47.4664 7.54809C46.7968 8.2124 46.4681 9.06929 46.4681 10.0954C46.4681 11.1293 46.7826 12.0004 47.4248 12.6874ZM51.2493 8.79907L51.2506 8.80054L51.2519 8.802C51.5878 9.16556 51.7579 9.60856 51.7579 10.1472C51.7579 10.7011 51.5913 11.1356 51.2717 11.4726C50.9499 11.8118 50.5602 11.9785 50.086 11.9785C49.6114 11.9785 49.2072 11.8112 48.8602 11.467C48.5196 11.1291 48.3446 10.6965 48.3446 10.1472C48.3446 9.59567 48.5154 9.15476 48.8479 8.8048C49.1963 8.4389 49.599 8.26403 50.0686 8.26403C50.5376 8.26403 50.9259 8.43817 51.2493 8.79907Z" fill="#262B31"/>
<path id="Union_5" d="M43.9875 13.7022H44.8636C45.1857 13.7022 45.4468 13.4641 45.4468 13.1705L45.4468 7.08491C45.4468 6.79128 45.1857 6.55324 44.8636 6.55323L43.9875 6.55322C43.6654 6.55322 43.4042 6.79126 43.4042 7.08491L43.4043 13.1705C43.4043 13.4641 43.6654 13.7022 43.9875 13.7022Z" fill="#262B31"/>
<path id="Ellipse 6733" d="M45.4468 5.02128C45.4468 5.58531 44.9895 6.04255 44.4255 6.04255C43.8615 6.04255 43.4042 5.58531 43.4042 5.02128C43.4042 4.45724 43.8615 4 44.4255 4C44.9895 4 45.4468 4.45724 45.4468 5.02128Z" fill="#262B31"/>
<path id="Union_6" d="M32.1424 11.6671L32.1398 11.6691L32.1372 11.6711C31.1386 12.437 30.6383 13.4767 30.6383 14.7384C30.6383 15.6764 31.0239 16.4836 31.7595 17.1341C32.4785 17.7699 33.8922 18.3308 35.2294 18.7236C35.9985 18.9495 36.6015 19.202 36.8872 19.4509C37.1609 19.6893 37.1813 20.2007 36.8861 20.4275C36.6778 20.5876 36.3565 20.6948 35.8609 20.6948H32.1949C31.5927 20.6948 31.1045 21.1829 31.1045 21.7852V22.8244C31.1045 23.4266 31.5927 23.9148 32.1949 23.9148H35.7944C37.2229 23.9148 38.4062 23.6628 39.3639 22.8845L39.3649 22.8838C40.352 22.0778 40.8511 21.0233 40.8511 19.7624C40.8511 18.4882 40.3665 17.4695 39.3545 16.8013C38.954 16.5368 38.5657 16.3554 38.0753 16.1363C37.3639 15.8185 36.5753 15.4883 35.5882 15.2285C34.9747 15.0671 34.5384 14.9312 34.3441 14.7671C34.1039 14.5642 34.1483 14.1778 34.4308 14.0047C34.6529 13.8687 35.1029 13.8506 35.7612 13.8506H37.5676C38.1698 13.8506 38.658 13.3624 38.658 12.7602V11.7286C38.658 11.1264 38.1698 10.6382 37.5676 10.6382L35.9606 10.6382C34.4357 10.6382 33.1466 10.9161 32.1424 11.6671Z" fill="#262B31"/>
<path id="Union_7" fill-rule="evenodd" clip-rule="evenodd" d="M5.16945 10.1277C3.68565 10.1277 2.51612 10.5295 1.47689 11.5392C0.42625 12.56 3.29483e-05 14.0815 7.62566e-06 15.5466L4.14255e-10 16.1188C-4.25771e-05 20.2294 3.28203 23.5639 7.33064 23.5639H8.35731C8.87819 23.5639 9.28299 23.1104 9.22404 22.5929L9.0672 21.2158C9.0096 20.71 8.57327 20.3379 8.06452 20.3207C-nan -nan -nan -nan 8.06452 20.3207L-nan -nanL8.06452 20.3207C5.84064 20.2458 3.85867 19.5364 3.85874 15.5467C3.85876 14.4817 4.24074 13.4244 5.40989 13.4244H8.90629C9.96343 13.4244 10.8207 14.3327 10.8207 15.4152V21.7438V22.2971C10.8207 23.657 9.73494 24.7594 8.39554 24.7594H6.34919C5.91419 24.7594 5.56155 25.1174 5.56155 25.5591V27.2003C5.56155 27.642 5.91419 28 6.34919 28H9.4475C12.1263 28 14.2979 25.7952 14.2979 23.0754V14.5407C14.2979 12.1034 12.3519 10.1277 9.95144 10.1277H5.16945Z" fill="#262B31"/>
<path id="Rectangle 2510" d="M8.17023 18.0426C8.17023 17.6195 8.51316 17.2766 8.93618 17.2766C9.35921 17.2766 9.70214 17.6195 9.70214 18.0426C9.70214 18.4656 9.35921 18.8085 8.93618 18.8085C8.51316 18.8085 8.17023 18.4656 8.17023 18.0426Z" fill="#262B31"/>
</g>
</g>
</g>
</svg>
